<svg width="40" height="40" viewBox="0 0 40 40" fill="none" xmlns="http://www.w3.org/2000/svg">
<rect x="0.5" y="0.5" width="39" height="39" rx="5.5" stroke="white"/>
<path d="M27.7729 14.4733C25.2441 12.5809 22.8212 12.6341 22.8212 12.6341L22.5735 12.917C25.58 13.819 26.9771 15.1453 26.9771 15.1453C22.6757 12.7771 17.1969 12.7941 12.7229 15.1453C12.7229 15.1453 14.1731 13.7482 17.3565 12.8462L17.1797 12.6339C17.1797 12.6339 14.7745 12.5809 12.2279 14.4731C12.2279 14.4731 9.68121 19.0535 9.68121 24.6951C9.68121 24.6951 11.1669 27.2419 15.0753 27.3657C15.0753 27.3657 15.7296 26.5875 16.2601 25.9155C14.0142 25.2435 13.1652 23.8464 13.1652 23.8464C14.5763 24.7293 16.003 25.2819 17.7811 25.6326C20.6739 26.228 24.2722 25.6158 26.9597 23.8464C26.9597 23.8464 26.0754 25.2788 23.7586 25.9332C24.2892 26.5875 24.9258 27.348 24.9258 27.348C28.8342 27.2242 30.3197 24.6775 30.3197 24.6953C30.3194 19.0537 27.7729 14.4733 27.7729 14.4733ZM16.7022 23.0506C15.7117 23.0506 14.8983 22.1839 14.8983 21.1052C14.9706 18.5216 18.4518 18.5296 18.5061 21.1052C18.5061 22.1839 17.71 23.0506 16.7022 23.0506ZM23.157 23.0506C22.1666 23.0506 21.3531 22.1839 21.3531 21.1052C21.4326 18.5267 24.8702 18.5256 24.9609 21.1052C24.9609 22.1839 24.1651 23.0506 23.157 23.0506Z" fill="white"/>
</svg>
