<svg width="40" height="40" viewBox="0 0 40 40" fill="none" xmlns="http://www.w3.org/2000/svg">
<path d="M4.6875 0.5H35.3125C37.6252 0.5 39.5 2.37481 39.5 4.6875V35.3125C39.5 37.6252 37.6252 39.5 35.3125 39.5H4.6875C2.37481 39.5 0.5 37.6252 0.5 35.3125V4.6875C0.5 2.37481 2.37481 0.5 4.6875 0.5Z" stroke="white"/>
<path d="M25.4082 11.5H28.2921L21.9916 18.701L29.4036 28.5H23.6001L19.0545 22.557L13.8534 28.5H10.9678L17.7067 20.7977L10.5964 11.5H16.5473L20.656 16.9322L25.4082 11.5ZM24.396 26.7738H25.994L15.6789 13.1355H13.9641L24.396 26.7738Z" fill="white"/>
</svg>
